# xmcd CD database file
#
# Track frame offsets:
#	150
#	21499
#	39297
#	56285
#	75780
#	93189
#	118530
#	149492
#	164940
#	181165
#
# Disc length: 2620 seconds
#
# Revision: 0
# Processed by: cddbd v1.5.2PL0 Copyright (c) Steve Scherf et al.
# Submitted via: CDex 1.70beta2
#
DISCID=780a3a0a
DTITLE=Eci Cavalcante - O fim natural da ansiedade
DYEAR=1900
DGENRE=New Age
TTITLE0=Minutos Preciosos em Goiania - GO
TTITLE1=O Por do Sol em Brasilia -DF
TTITLE2=Alegria de Viver em Campina Grande - PB
TTITLE3=Um Novo Dia em Imperatriz - MA
TTITLE4=Recordando Rio Branco - AC
TTITLE5=Valsa Solene para Jaboatao dos Guararapes - PE
TTITLE6=Caminhos da Vida em Porto Velho - RO
TTITLE7=Suavidade das Noites em Cuiaba - MT
TTITLE8=Um Novo Som para Arapiraca - AL
TTITLE9=Melodia em Do Maior para Violoncelo para Campo Grande - MS
EXTD=
EXTT0=
EXTT1=
EXTT2=
EXTT3=
EXTT4=
EXTT5=
EXTT6=
EXTT7=
EXTT8=
EXTT9=
PLAYORDER=
